<svg width="28" height="28" viewBox="0 0 28 28" fill="none" xmlns="http://www.w3.org/2000/svg">
<g clip-path="url(#clip0_575_674)">
<path d="M14 28C21.732 28 28 21.732 28 14C28 6.26801 21.732 0 14 0C6.26801 0 0 6.26801 0 14C0 21.732 6.26801 28 14 28Z" fill="#F3B000"/>
<g clip-path="url(#clip1_575_674)">
<path d="M25.305 12.068L27.776 11.606C27.538 10.234 27.104 8.932 26.502 7.728L24.255 8.855C23.919 8.19 23.527 7.56 23.072 6.979L25.074 5.453C24.227 4.361 23.226 3.395 22.099 2.59L20.594 4.606C18.725 3.297 16.457 2.52 14.007 2.52C13.349 2.52 12.705 2.59 12.075 2.695L11.613 0.223999C10.241 0.461999 8.93896 0.895999 7.73496 1.498L8.86196 3.745C8.19696 4.081 7.56696 4.473 6.98596 4.928L5.45996 2.926C4.36796 3.773 3.40196 4.774 2.59696 5.901L4.61296 7.406C3.30396 9.275 2.52696 11.543 2.52696 13.993C2.52696 14.651 2.59696 15.295 2.70196 15.925L0.230957 16.387C0.468957 17.759 0.902957 19.061 1.50496 20.265L3.75196 19.138C4.08796 19.803 4.47996 20.433 4.93496 21.014L2.93296 22.54C3.77996 23.632 4.78096 24.598 5.90796 25.403L7.41296 23.387C9.28196 24.696 11.55 25.473 14 25.473C14.658 25.473 15.302 25.403 15.932 25.298L16.394 27.769C17.766 27.531 19.068 27.097 20.272 26.495L19.145 24.248C19.81 23.912 20.44 23.52 21.021 23.065L22.547 25.067C23.639 24.22 24.605 23.219 25.41 22.092L23.394 20.587C24.703 18.718 25.48 16.45 25.48 14C25.48 13.342 25.41 12.698 25.305 12.068Z" fill="url(#paint0_radial_575_674)"/>
</g>
<path d="M14 23.604C19.3041 23.604 23.604 19.3041 23.604 14C23.604 8.69585 19.3041 4.396 14 4.396C8.69585 4.396 4.396 8.69585 4.396 14C4.396 19.3041 8.69585 23.604 14 23.604Z" fill="#F3B000"/>
<path d="M13.9999 3.78003C8.35791 3.78003 3.77991 8.35803 3.77991 14C3.77991 19.642 8.35791 24.22 13.9999 24.22C19.6419 24.22 24.2199 19.642 24.2199 14C24.2199 8.35803 19.6419 3.78003 13.9999 3.78003ZM13.9999 23.604C8.69391 23.604 4.39591 19.306 4.39591 14C4.39591 8.69403 8.69391 4.39603 13.9999 4.39603C19.3059 4.39603 23.6039 8.69403 23.6039 14C23.6039 19.306 19.3059 23.604 13.9999 23.604Z" fill="#F3B000"/>
<path opacity="0.32" d="M13.9999 3.78003C8.35791 3.78003 3.77991 8.35803 3.77991 14C3.77991 19.642 8.35791 24.22 13.9999 24.22C19.6419 24.22 24.2199 19.642 24.2199 14C24.2199 8.35803 19.6419 3.78003 13.9999 3.78003ZM13.9999 23.604C8.69391 23.604 4.39591 19.306 4.39591 14C4.39591 8.69403 8.69391 4.39603 13.9999 4.39603C19.3059 4.39603 23.6039 8.69403 23.6039 14C23.6039 19.306 19.3059 23.604 13.9999 23.604Z" fill="url(#paint1_radial_575_674)"/>
<path fill-rule="evenodd" clip-rule="evenodd" d="M14 0.419998C6.49998 0.419998 0.420001 6.49997 0.420001 14C0.42 21.5 6.49997 27.58 14 27.58C21.5 27.58 27.58 21.5 27.58 14C27.58 6.49997 21.5 0.419999 14 0.419998ZM1.70076e-06 14C2.37671e-06 6.26801 6.26802 -1.42303e-06 14 -7.47082e-07C21.732 -7.113e-08 28 6.26801 28 14C28 21.732 21.732 28 14 28C6.26801 28 1.0248e-06 21.732 1.70076e-06 14Z" fill="url(#paint2_linear_575_674)" fill-opacity="0.2"/>
</g>
<defs>
<radialGradient id="paint0_radial_575_674" cx="0" cy="0" r="1" gradientUnits="userSpaceOnUse" gradientTransform="translate(14.0035 13.9965) rotate(90) scale(14.0035)">
<stop offset="0.730693" stop-color="white" stop-opacity="0.27"/>
<stop offset="0.751167" stop-color="white" stop-opacity="0.69"/>
<stop offset="0.758071" stop-color="white"/>
<stop offset="0.969734" stop-color="white"/>
<stop offset="0.971947" stop-color="white" stop-opacity="0.8"/>
<stop offset="1" stop-color="white" stop-opacity="0.8"/>
</radialGradient>
<radialGradient id="paint1_radial_575_674" cx="0" cy="0" r="1" gradientUnits="userSpaceOnUse" gradientTransform="translate(13.9999 14) rotate(90) scale(10.22)">
<stop offset="0.952277" stop-opacity="0"/>
<stop offset="1"/>
</radialGradient>
<linearGradient id="paint2_linear_575_674" x1="14" y1="28" x2="14" y2="-1.22392e-06" gradientUnits="userSpaceOnUse">
<stop/>
<stop offset="1" stop-opacity="0"/>
</linearGradient>
<clipPath id="clip0_575_674">
<rect width="28" height="28" fill="white"/>
</clipPath>
<clipPath id="clip1_575_674">
<rect width="28" height="28" fill="white"/>
</clipPath>
</defs>
</svg>
