<svg width="28" height="28" viewBox="0 0 28 28" fill="none" xmlns="http://www.w3.org/2000/svg">
<g clip-path="url(#clip0_575_635)">
<path d="M14 28C21.732 28 28 21.732 28 14C28 6.26801 21.732 0 14 0C6.26801 0 0 6.26801 0 14C0 21.732 6.26801 28 14 28Z" fill="#FF8319"/>
<g clip-path="url(#clip1_575_635)">
<path d="M25.305 12.068L27.776 11.606C27.538 10.234 27.104 8.932 26.502 7.728L24.255 8.855C23.919 8.19 23.527 7.56 23.072 6.979L25.074 5.453C24.227 4.361 23.226 3.395 22.099 2.59L20.594 4.606C18.725 3.297 16.457 2.52 14.007 2.52C13.349 2.52 12.705 2.59 12.075 2.695L11.613 0.223999C10.241 0.461999 8.93902 0.895999 7.73502 1.498L8.86202 3.745C8.19702 4.081 7.56702 4.473 6.98602 4.928L5.46002 2.926C4.36802 3.773 3.40202 4.774 2.59702 5.901L4.61302 7.406C3.30402 9.275 2.52702 11.543 2.52702 13.993C2.52702 14.651 2.59702 15.295 2.70202 15.925L0.231018 16.387C0.469018 17.759 0.903018 19.061 1.50502 20.265L3.75202 19.138C4.08802 19.803 4.48002 20.433 4.93502 21.014L2.93302 22.54C3.78002 23.632 4.78102 24.598 5.90802 25.403L7.41302 23.387C9.28202 24.696 11.55 25.473 14 25.473C14.658 25.473 15.302 25.403 15.932 25.298L16.394 27.769C17.766 27.531 19.068 27.097 20.272 26.495L19.145 24.248C19.81 23.912 20.44 23.52 21.021 23.065L22.547 25.067C23.639 24.22 24.605 23.219 25.41 22.092L23.394 20.587C24.703 18.718 25.48 16.45 25.48 14C25.48 13.342 25.41 12.698 25.305 12.068Z" fill="url(#paint0_radial_575_635)"/>
</g>
<path d="M14 23.604C19.3041 23.604 23.604 19.3041 23.604 14C23.604 8.69585 19.3041 4.396 14 4.396C8.69585 4.396 4.396 8.69585 4.396 14C4.396 19.3041 8.69585 23.604 14 23.604Z" fill="#FF8319"/>
<path d="M13.9999 3.78003C8.35791 3.78003 3.77991 8.35803 3.77991 14C3.77991 19.642 8.35791 24.22 13.9999 24.22C19.6419 24.22 24.2199 19.642 24.2199 14C24.2199 8.35803 19.6419 3.78003 13.9999 3.78003ZM13.9999 23.604C8.69391 23.604 4.39591 19.306 4.39591 14C4.39591 8.69403 8.69391 4.39603 13.9999 4.39603C19.3059 4.39603 23.6039 8.69403 23.6039 14C23.6039 19.306 19.3059 23.604 13.9999 23.604Z" fill="#FF8319"/>
<path opacity="0.32" d="M13.9999 3.78003C8.35791 3.78003 3.77991 8.35803 3.77991 14C3.77991 19.642 8.35791 24.22 13.9999 24.22C19.6419 24.22 24.2199 19.642 24.2199 14C24.2199 8.35803 19.6419 3.78003 13.9999 3.78003ZM13.9999 23.604C8.69391 23.604 4.39591 19.306 4.39591 14C4.39591 8.69403 8.69391 4.39603 13.9999 4.39603C19.3059 4.39603 23.6039 8.69403 23.6039 14C23.6039 19.306 19.3059 23.604 13.9999 23.604Z" fill="url(#paint1_radial_575_635)"/>
<path fill-rule="evenodd" clip-rule="evenodd" d="M14 0.419998C6.49998 0.419998 0.420001 6.49997 0.420001 14C0.42 21.5 6.49997 27.58 14 27.58C21.5 27.58 27.58 21.5 27.58 14C27.58 6.49997 21.5 0.419999 14 0.419998ZM1.70076e-06 14C2.37671e-06 6.26801 6.26802 -1.42303e-06 14 -7.47082e-07C21.732 -7.113e-08 28 6.26801 28 14C28 21.732 21.732 28 14 28C6.26801 28 1.0248e-06 21.732 1.70076e-06 14Z" fill="url(#paint2_linear_575_635)" fill-opacity="0.2"/>
</g>
<mask id="path-7-outside-1_575_635" maskUnits="userSpaceOnUse" x="2.5" y="8.82501" width="23" height="11" fill="black">
<rect fill="white" x="2.5" y="8.82501" width="23" height="11"/>
<path d="M7.58417 10.1886V17.825H5.96964V11.7211H5.9249L4.17614 12.8174V11.3856L6.06659 10.1886H7.58417ZM11.7633 17.9928C11.1219 17.9903 10.5701 17.8325 10.1077 17.5193C9.64784 17.206 9.29361 16.7524 9.04503 16.1583C8.79894 15.5642 8.67714 14.8495 8.67962 14.0143C8.67962 13.1815 8.80267 12.4719 9.04876 11.8852C9.29734 11.2986 9.65157 10.8524 10.1114 10.5466C10.5738 10.2384 11.1244 10.0842 11.7633 10.0842C12.4021 10.0842 12.9515 10.2384 13.4113 10.5466C13.8737 10.8548 14.2292 11.3023 14.4777 11.8889C14.7263 12.4731 14.8494 13.1815 14.8469 14.0143C14.8469 14.852 14.7226 15.5679 14.474 16.162C14.2279 16.7561 13.8749 17.2098 13.4151 17.523C12.9552 17.8362 12.4046 17.9928 11.7633 17.9928ZM11.7633 16.6542C12.2008 16.6542 12.55 16.4342 12.811 15.9942C13.072 15.5542 13.2013 14.8943 13.1988 14.0143C13.1988 13.4351 13.1391 12.9529 13.0198 12.5676C12.903 12.1823 12.7364 11.8927 12.5202 11.6988C12.3064 11.5049 12.0541 11.4079 11.7633 11.4079C11.3282 11.4079 10.9802 11.6254 10.7192 12.0605C10.4582 12.4955 10.3265 13.1467 10.324 14.0143C10.324 14.6009 10.3824 15.0906 10.4992 15.4834C10.6185 15.8737 10.7863 16.167 11.0026 16.3634C11.2189 16.5573 11.4724 16.6542 11.7633 16.6542ZM15.4129 10.1886H17.404L19.507 15.3193H19.5965L21.6994 10.1886H23.6906V17.825H22.1245V12.8547H22.0611L20.0849 17.7877H19.0185L17.0423 12.836H16.9789V17.825H15.4129V10.1886Z"/>
</mask>
<path d="M7.58417 10.1886V17.825H5.96964V11.7211H5.9249L4.17614 12.8174V11.3856L6.06659 10.1886H7.58417ZM11.7633 17.9928C11.1219 17.9903 10.5701 17.8325 10.1077 17.5193C9.64784 17.206 9.29361 16.7524 9.04503 16.1583C8.79894 15.5642 8.67714 14.8495 8.67962 14.0143C8.67962 13.1815 8.80267 12.4719 9.04876 11.8852C9.29734 11.2986 9.65157 10.8524 10.1114 10.5466C10.5738 10.2384 11.1244 10.0842 11.7633 10.0842C12.4021 10.0842 12.9515 10.2384 13.4113 10.5466C13.8737 10.8548 14.2292 11.3023 14.4777 11.8889C14.7263 12.4731 14.8494 13.1815 14.8469 14.0143C14.8469 14.852 14.7226 15.5679 14.474 16.162C14.2279 16.7561 13.8749 17.2098 13.4151 17.523C12.9552 17.8362 12.4046 17.9928 11.7633 17.9928ZM11.7633 16.6542C12.2008 16.6542 12.55 16.4342 12.811 15.9942C13.072 15.5542 13.2013 14.8943 13.1988 14.0143C13.1988 13.4351 13.1391 12.9529 13.0198 12.5676C12.903 12.1823 12.7364 11.8927 12.5202 11.6988C12.3064 11.5049 12.0541 11.4079 11.7633 11.4079C11.3282 11.4079 10.9802 11.6254 10.7192 12.0605C10.4582 12.4955 10.3265 13.1467 10.324 14.0143C10.324 14.6009 10.3824 15.0906 10.4992 15.4834C10.6185 15.8737 10.7863 16.167 11.0026 16.3634C11.2189 16.5573 11.4724 16.6542 11.7633 16.6542ZM15.4129 10.1886H17.404L19.507 15.3193H19.5965L21.6994 10.1886H23.6906V17.825H22.1245V12.8547H22.0611L20.0849 17.7877H19.0185L17.0423 12.836H16.9789V17.825H15.4129V10.1886Z" fill="url(#paint3_linear_575_635)"/>
<path d="M7.58417 10.1886H8.42417C8.42417 9.72473 8.04809 9.34865 7.58417 9.34865V10.1886ZM7.58417 17.825V18.665C8.04809 18.665 8.42417 18.2889 8.42417 17.825H7.58417ZM5.96964 17.825H5.12964C5.12964 18.2889 5.50573 18.665 5.96964 18.665V17.825ZM5.96964 11.7211H6.80964C6.80964 11.2572 6.43356 10.8811 5.96964 10.8811V11.7211ZM5.9249 11.7211V10.8811C5.76708 10.8811 5.61246 10.9256 5.47875 11.0094L5.9249 11.7211ZM4.17614 12.8174H3.33614C3.33614 13.1229 3.50207 13.4044 3.76943 13.5523C4.03679 13.7003 4.3634 13.6914 4.6223 13.5291L4.17614 12.8174ZM4.17614 11.3856L3.7268 10.6758C3.48357 10.8298 3.33614 11.0977 3.33614 11.3856H4.17614ZM6.06659 10.1886V9.34865C5.90749 9.34865 5.75167 9.39383 5.61725 9.47894L6.06659 10.1886ZM6.74417 10.1886V17.825H8.42417V10.1886H6.74417ZM7.58417 16.985H5.96964V18.665H7.58417V16.985ZM6.80964 17.825V11.7211H5.12964V17.825H6.80964ZM5.96964 10.8811H5.9249V12.5611H5.96964V10.8811ZM5.47875 11.0094L3.72999 12.1057L4.6223 13.5291L6.37105 12.4329L5.47875 11.0094ZM5.01614 12.8174V11.3856H3.33614V12.8174H5.01614ZM4.62549 12.0953L6.51593 10.8984L5.61725 9.47894L3.7268 10.6758L4.62549 12.0953ZM6.06659 11.0286H7.58417V9.34865H6.06659V11.0286ZM11.7633 17.9928L11.76 18.8328H11.7633V17.9928ZM10.1077 17.5193L9.63486 18.2135L9.6366 18.2147L10.1077 17.5193ZM9.04503 16.1583L8.26897 16.4798L8.27013 16.4825L9.04503 16.1583ZM8.67962 14.0143L9.51962 14.0168V14.0143H8.67962ZM9.04876 11.8852L8.27533 11.5575L8.27416 11.5603L9.04876 11.8852ZM10.1114 10.5466L10.5765 11.2461L10.5774 11.2455L10.1114 10.5466ZM13.4113 10.5466L12.9436 11.2444L12.9454 11.2455L13.4113 10.5466ZM14.4777 11.8889L13.7043 12.2167L13.7048 12.2178L14.4777 11.8889ZM14.8469 14.0143L14.0069 14.0118V14.0143H14.8469ZM14.474 16.162L13.6991 15.8378L13.698 15.8406L14.474 16.162ZM13.4151 17.523L13.8879 18.2173L13.8879 18.2173L13.4151 17.523ZM12.811 15.9942L13.5335 16.4228L13.5335 16.4228L12.811 15.9942ZM13.1988 14.0143L12.3588 14.0143L12.3588 14.0167L13.1988 14.0143ZM13.0198 12.5676L12.2159 12.8113L12.2174 12.816L13.0198 12.5676ZM12.5202 11.6988L11.9558 12.321L11.9594 12.3242L12.5202 11.6988ZM10.7192 12.0605L9.99892 11.6283L9.99892 11.6283L10.7192 12.0605ZM10.324 14.0143L9.48397 14.0119V14.0143H10.324ZM10.4992 15.4834L9.69407 15.7229L9.69593 15.729L10.4992 15.4834ZM11.0026 16.3634L10.4379 16.9852L10.4419 16.9888L11.0026 16.3634ZM11.7665 17.1528C11.2665 17.1509 10.8833 17.0301 10.5788 16.8238L9.6366 18.2147C10.2568 18.6348 10.9773 18.8298 11.76 18.8328L11.7665 17.1528ZM10.5806 16.825C10.2752 16.617 10.0159 16.3024 9.81994 15.8341L8.27013 16.4825C8.57135 17.2024 9.02048 17.7951 9.63486 18.2135L10.5806 16.825ZM9.82109 15.8368C9.62818 15.3711 9.51737 14.7726 9.51962 14.0168L7.83962 14.0118C7.8369 14.9265 7.9697 15.7572 8.26898 16.4797L9.82109 15.8368ZM9.51962 14.0143C9.51962 13.2603 9.63154 12.6674 9.82337 12.2101L8.27416 11.5603C7.9738 12.2763 7.83962 13.1028 7.83962 14.0143H9.51962ZM9.82219 12.2129C10.0167 11.7538 10.2737 11.4474 10.5765 11.2461L9.64636 9.8471C9.02941 10.2573 8.57796 10.8433 8.27533 11.5575L9.82219 12.2129ZM10.5774 11.2455C10.882 11.0425 11.2647 10.9242 11.7633 10.9242V9.24424C10.9841 9.24424 10.2656 9.43425 9.64549 9.84768L10.5774 11.2455ZM11.7633 10.9242C12.2619 10.9242 12.6425 11.0425 12.9436 11.2444L13.879 9.84884C13.2604 9.43422 12.5423 9.24424 11.7633 9.24424V10.9242ZM12.9454 11.2455C13.252 11.4499 13.5101 11.7584 13.7043 12.2167L15.2512 11.5612C14.9482 10.8462 14.4954 10.2598 13.8773 9.84768L12.9454 11.2455ZM13.7048 12.2178C13.8972 12.67 14.0091 13.2591 14.0069 14.0118L15.6869 14.0168C15.6896 13.104 15.5554 12.2761 15.2507 11.56L13.7048 12.2178ZM14.0069 14.0143C14.0069 14.7726 13.8939 15.3722 13.6991 15.8378L15.2489 16.4862C15.5513 15.7636 15.6869 14.9314 15.6869 14.0143H14.0069ZM13.698 15.8406C13.5045 16.3076 13.2468 16.6213 12.9422 16.8287L13.8879 18.2173C14.5031 17.7983 14.9514 17.2046 15.2501 16.4835L13.698 15.8406ZM12.9422 16.8287C12.6422 17.0331 12.2624 17.1528 11.7633 17.1528V18.8328C12.5467 18.8328 13.2682 18.6393 13.8879 18.2173L12.9422 16.8287ZM11.7633 17.4942C12.5523 17.4942 13.1515 17.0667 13.5335 16.4228L12.0886 15.5657C11.9485 15.8017 11.8492 15.8142 11.7633 15.8142V17.4942ZM13.5335 16.4228C13.9093 15.7893 14.0414 14.9477 14.0388 14.0119L12.3588 14.0167C12.3611 14.8408 12.2348 15.3192 12.0886 15.5657L13.5335 16.4228ZM14.0388 14.0143C14.0388 13.3843 13.9747 12.8115 13.8222 12.3191L12.2174 12.816C12.3036 13.0942 12.3588 13.4859 12.3588 14.0143H14.0388ZM13.8237 12.3238C13.6787 11.8458 13.4476 11.4021 13.0809 11.0733L11.9594 12.3242C12.0253 12.3832 12.1272 12.5187 12.216 12.8113L13.8237 12.3238ZM13.0845 11.0766C12.7149 10.7413 12.2609 10.5679 11.7633 10.5679V12.2479C11.8472 12.2479 11.8979 12.2684 11.9559 12.321L13.0845 11.0766ZM11.7633 10.5679C10.9795 10.5679 10.3819 10.99 9.99892 11.6283L11.4395 12.4926C11.5786 12.2609 11.677 12.2479 11.7633 12.2479V10.5679ZM9.99892 11.6283C9.62261 12.2555 9.48663 13.0875 9.48398 14.0119L11.164 14.0167C11.1663 13.206 11.2938 12.7355 11.4395 12.4926L9.99892 11.6283ZM9.48397 14.0143C9.48397 14.6502 9.54654 15.2269 9.69409 15.7229L11.3044 15.2439C11.2182 14.9544 11.164 14.5517 11.164 14.0143H9.48397ZM9.69593 15.729C9.84272 16.2091 10.0738 16.6546 10.4379 16.9852L11.5673 15.7415C11.4989 15.6794 11.3944 15.5382 11.3025 15.2378L9.69593 15.729ZM10.4419 16.9888C10.8124 17.3211 11.2658 17.4942 11.7633 17.4942V15.8142C11.6791 15.8142 11.6253 15.7935 11.5633 15.7379L10.4419 16.9888ZM15.4129 10.1886V9.34865C14.9489 9.34865 14.5729 9.72473 14.5729 10.1886H15.4129ZM17.404 10.1886L18.1812 9.87007C18.0519 9.55466 17.7449 9.34865 17.404 9.34865V10.1886ZM19.507 15.3193L18.7297 15.6379C18.859 15.9533 19.1661 16.1593 19.507 16.1593V15.3193ZM19.5965 15.3193V16.1593C19.9373 16.1593 20.2444 15.9533 20.3737 15.6379L19.5965 15.3193ZM21.6994 10.1886V9.34865C21.3586 9.34865 21.0515 9.55466 20.9222 9.87007L21.6994 10.1886ZM23.6906 10.1886H24.5306C24.5306 9.72473 24.1545 9.34865 23.6906 9.34865V10.1886ZM23.6906 17.825V18.665C24.1545 18.665 24.5306 18.2889 24.5306 17.825H23.6906ZM22.1245 17.825H21.2845C21.2845 18.2889 21.6606 18.665 22.1245 18.665V17.825ZM22.1245 12.8547H22.9645C22.9645 12.3907 22.5884 12.0147 22.1245 12.0147V12.8547ZM22.0611 12.8547V12.0147C21.7178 12.0147 21.409 12.2236 21.2814 12.5423L22.0611 12.8547ZM20.0849 17.7877V18.6277C20.4282 18.6277 20.737 18.4188 20.8647 18.1001L20.0849 17.7877ZM19.0185 17.7877L18.2383 18.0991C18.3657 18.4183 18.6748 18.6277 19.0185 18.6277V17.7877ZM17.0423 12.836L17.8225 12.5247C17.6951 12.2054 17.386 11.996 17.0423 11.996V12.836ZM16.9789 12.836V11.996C16.515 11.996 16.1389 12.3721 16.1389 12.836H16.9789ZM16.9789 17.825V18.665C17.4428 18.665 17.8189 18.2889 17.8189 17.825H16.9789ZM15.4129 17.825H14.5729C14.5729 18.2889 14.9489 18.665 15.4129 18.665V17.825ZM15.4129 11.0286H17.404V9.34865H15.4129V11.0286ZM16.6267 10.5072L18.7297 15.6379L20.2842 15.0008L18.1812 9.87007L16.6267 10.5072ZM19.507 16.1593H19.5965V14.4793H19.507V16.1593ZM20.3737 15.6379L22.4767 10.5072L20.9222 9.87007L18.8192 15.0008L20.3737 15.6379ZM21.6994 11.0286H23.6906V9.34865H21.6994V11.0286ZM22.8506 10.1886V17.825H24.5306V10.1886H22.8506ZM23.6906 16.985H22.1245V18.665H23.6906V16.985ZM22.9645 17.825V12.8547H21.2845V17.825H22.9645ZM22.1245 12.0147H22.0611V13.6947H22.1245V12.0147ZM21.2814 12.5423L19.3052 17.4754L20.8647 18.1001L22.8409 13.167L21.2814 12.5423ZM20.0849 16.9477H19.0185V18.6277H20.0849V16.9477ZM19.7987 17.4764L17.8225 12.5247L16.2621 13.1474L18.2383 18.0991L19.7987 17.4764ZM17.0423 11.996H16.9789V13.676H17.0423V11.996ZM16.1389 12.836V17.825H17.8189V12.836H16.1389ZM16.9789 16.985H15.4129V18.665H16.9789V16.985ZM16.2529 17.825V10.1886H14.5729V17.825H16.2529Z" fill="#FF8319" mask="url(#path-7-outside-1_575_635)"/>
<defs>
<radialGradient id="paint0_radial_575_635" cx="0" cy="0" r="1" gradientUnits="userSpaceOnUse" gradientTransform="translate(14.0035 13.9965) rotate(90) scale(14.0035)">
<stop offset="0.730693" stop-color="white" stop-opacity="0.27"/>
<stop offset="0.751167" stop-color="white" stop-opacity="0.69"/>
<stop offset="0.758071" stop-color="white"/>
<stop offset="0.969734" stop-color="white"/>
<stop offset="0.971947" stop-color="white" stop-opacity="0.8"/>
<stop offset="1" stop-color="white" stop-opacity="0.8"/>
</radialGradient>
<radialGradient id="paint1_radial_575_635" cx="0" cy="0" r="1" gradientUnits="userSpaceOnUse" gradientTransform="translate(13.9999 14) rotate(90) scale(10.22)">
<stop offset="0.952277" stop-opacity="0"/>
<stop offset="1"/>
</radialGradient>
<linearGradient id="paint2_linear_575_635" x1="14" y1="28" x2="14" y2="-1.22392e-06" gradientUnits="userSpaceOnUse">
<stop/>
<stop offset="1" stop-opacity="0"/>
</linearGradient>
<linearGradient id="paint3_linear_575_635" x1="14" y1="9.62501" x2="14" y2="17.625" gradientUnits="userSpaceOnUse">
<stop stop-color="white"/>
<stop offset="1" stop-color="white"/>
</linearGradient>
<clipPath id="clip0_575_635">
<rect width="28" height="28" fill="white"/>
</clipPath>
<clipPath id="clip1_575_635">
<rect width="28" height="28" fill="white"/>
</clipPath>
</defs>
</svg>
