<svg width="28" height="28" viewBox="0 0 28 28" fill="none" xmlns="http://www.w3.org/2000/svg">
<g clip-path="url(#clip0_575_648)">
<path d="M14 28C21.732 28 28 21.732 28 14C28 6.26801 21.732 0 14 0C6.26801 0 0 6.26801 0 14C0 21.732 6.26801 28 14 28Z" fill="#45BCD6"/>
<g clip-path="url(#clip1_575_648)">
<path d="M25.305 12.068L27.776 11.606C27.538 10.234 27.104 8.932 26.502 7.728L24.255 8.855C23.919 8.19 23.527 7.56 23.072 6.979L25.074 5.453C24.227 4.361 23.226 3.395 22.099 2.59L20.594 4.606C18.725 3.297 16.457 2.52 14.007 2.52C13.349 2.52 12.705 2.59 12.075 2.695L11.613 0.223999C10.241 0.461999 8.93902 0.895999 7.73502 1.498L8.86202 3.745C8.19702 4.081 7.56702 4.473 6.98602 4.928L5.46002 2.926C4.36802 3.773 3.40202 4.774 2.59702 5.901L4.61302 7.406C3.30402 9.275 2.52702 11.543 2.52702 13.993C2.52702 14.651 2.59702 15.295 2.70202 15.925L0.231018 16.387C0.469018 17.759 0.903018 19.061 1.50502 20.265L3.75202 19.138C4.08802 19.803 4.48002 20.433 4.93502 21.014L2.93302 22.54C3.78002 23.632 4.78102 24.598 5.90802 25.403L7.41302 23.387C9.28202 24.696 11.55 25.473 14 25.473C14.658 25.473 15.302 25.403 15.932 25.298L16.394 27.769C17.766 27.531 19.068 27.097 20.272 26.495L19.145 24.248C19.81 23.912 20.44 23.52 21.021 23.065L22.547 25.067C23.639 24.22 24.605 23.219 25.41 22.092L23.394 20.587C24.703 18.718 25.48 16.45 25.48 14C25.48 13.342 25.41 12.698 25.305 12.068Z" fill="url(#paint0_radial_575_648)"/>
</g>
<path d="M14 23.604C19.3041 23.604 23.604 19.3041 23.604 14C23.604 8.69585 19.3041 4.396 14 4.396C8.69585 4.396 4.396 8.69585 4.396 14C4.396 19.3041 8.69585 23.604 14 23.604Z" fill="#45BCD6"/>
<path d="M13.9999 3.78003C8.35791 3.78003 3.77991 8.35803 3.77991 14C3.77991 19.642 8.35791 24.22 13.9999 24.22C19.6419 24.22 24.2199 19.642 24.2199 14C24.2199 8.35803 19.6419 3.78003 13.9999 3.78003ZM13.9999 23.604C8.69391 23.604 4.39591 19.306 4.39591 14C4.39591 8.69403 8.69391 4.39603 13.9999 4.39603C19.3059 4.39603 23.6039 8.69403 23.6039 14C23.6039 19.306 19.3059 23.604 13.9999 23.604Z" fill="#45BCD6"/>
<path opacity="0.32" d="M13.9999 3.78003C8.35791 3.78003 3.77991 8.35803 3.77991 14C3.77991 19.642 8.35791 24.22 13.9999 24.22C19.6419 24.22 24.2199 19.642 24.2199 14C24.2199 8.35803 19.6419 3.78003 13.9999 3.78003ZM13.9999 23.604C8.69391 23.604 4.39591 19.306 4.39591 14C4.39591 8.69403 8.69391 4.39603 13.9999 4.39603C19.3059 4.39603 23.6039 8.69403 23.6039 14C23.6039 19.306 19.3059 23.604 13.9999 23.604Z" fill="url(#paint1_radial_575_648)"/>
<path fill-rule="evenodd" clip-rule="evenodd" d="M14 0.419998C6.49998 0.419998 0.420001 6.49997 0.420001 14C0.42 21.5 6.49997 27.58 14 27.58C21.5 27.58 27.58 21.5 27.58 14C27.58 6.49997 21.5 0.419999 14 0.419998ZM1.70076e-06 14C2.37671e-06 6.26801 6.26802 -1.42303e-06 14 -7.47082e-07C21.732 -7.113e-08 28 6.26801 28 14C28 21.732 21.732 28 14 28C6.26801 28 1.0248e-06 21.732 1.70076e-06 14Z" fill="url(#paint2_linear_575_648)" fill-opacity="0.2"/>
</g>
<mask id="path-7-outside-1_575_648" maskUnits="userSpaceOnUse" x="4.5" y="8.82501" width="19" height="10" fill="black">
<rect fill="white" x="4.5" y="8.82501" width="19" height="10"/>
<path d="M9.23763 17.9364C8.67551 17.9364 8.17438 17.833 7.73422 17.6261C7.29672 17.4193 6.94938 17.1343 6.69218 16.771C6.43498 16.4078 6.30108 15.9915 6.29047 15.5222H7.96093C7.97949 15.8377 8.11207 16.0936 8.35866 16.2898C8.60525 16.486 8.89824 16.5841 9.23763 16.5841C9.50809 16.5841 9.74672 16.5244 9.95354 16.4051C10.163 16.2832 10.3261 16.1148 10.4427 15.9C10.5621 15.6826 10.6217 15.4333 10.6217 15.1523C10.6217 14.8659 10.5607 14.614 10.4388 14.3966C10.3195 14.1792 10.1537 14.0095 9.94161 13.8875C9.72949 13.7655 9.48688 13.7032 9.21377 13.7006C8.97513 13.7006 8.74313 13.7496 8.51775 13.8477C8.29502 13.9458 8.12135 14.0797 7.99672 14.2494L6.46547 13.975L6.85127 9.67956H11.8308V11.0875H8.27116L8.06036 13.1279H8.10809C8.25127 12.9263 8.46737 12.7593 8.75638 12.6267C9.0454 12.4941 9.36888 12.4279 9.72684 12.4279C10.2174 12.4279 10.6549 12.5432 11.0393 12.7739C11.4238 13.0046 11.7274 13.3214 11.9501 13.7244C12.1729 14.1248 12.2829 14.5862 12.2802 15.1085C12.2829 15.6574 12.1556 16.1453 11.8984 16.5722C11.6439 16.9964 11.2873 17.3305 10.8285 17.5744C10.3725 17.8157 9.84218 17.9364 9.23763 17.9364ZM12.8571 9.67956H14.981L17.2242 15.1523H17.3196L19.5628 9.67956H21.6867V17.825H20.0162V12.5233H19.9486L17.8406 17.7852H16.7031L14.5952 12.5034H14.5276V17.825H12.8571V9.67956Z"/>
</mask>
<path d="M9.23763 17.9364C8.67551 17.9364 8.17438 17.833 7.73422 17.6261C7.29672 17.4193 6.94938 17.1343 6.69218 16.771C6.43498 16.4078 6.30108 15.9915 6.29047 15.5222H7.96093C7.97949 15.8377 8.11207 16.0936 8.35866 16.2898C8.60525 16.486 8.89824 16.5841 9.23763 16.5841C9.50809 16.5841 9.74672 16.5244 9.95354 16.4051C10.163 16.2832 10.3261 16.1148 10.4427 15.9C10.5621 15.6826 10.6217 15.4333 10.6217 15.1523C10.6217 14.8659 10.5607 14.614 10.4388 14.3966C10.3195 14.1792 10.1537 14.0095 9.94161 13.8875C9.72949 13.7655 9.48688 13.7032 9.21377 13.7006C8.97513 13.7006 8.74313 13.7496 8.51775 13.8477C8.29502 13.9458 8.12135 14.0797 7.99672 14.2494L6.46547 13.975L6.85127 9.67956H11.8308V11.0875H8.27116L8.06036 13.1279H8.10809C8.25127 12.9263 8.46737 12.7593 8.75638 12.6267C9.0454 12.4941 9.36888 12.4279 9.72684 12.4279C10.2174 12.4279 10.6549 12.5432 11.0393 12.7739C11.4238 13.0046 11.7274 13.3214 11.9501 13.7244C12.1729 14.1248 12.2829 14.5862 12.2802 15.1085C12.2829 15.6574 12.1556 16.1453 11.8984 16.5722C11.6439 16.9964 11.2873 17.3305 10.8285 17.5744C10.3725 17.8157 9.84218 17.9364 9.23763 17.9364ZM12.8571 9.67956H14.981L17.2242 15.1523H17.3196L19.5628 9.67956H21.6867V17.825H20.0162V12.5233H19.9486L17.8406 17.7852H16.7031L14.5952 12.5034H14.5276V17.825H12.8571V9.67956Z" fill="url(#paint3_linear_575_648)"/>
<path d="M7.73422 17.6261L7.37522 18.3856L7.377 18.3864L7.73422 17.6261ZM6.69218 16.771L7.37774 16.2856L7.37774 16.2856L6.69218 16.771ZM6.29047 15.5222V14.6822C6.0644 14.6822 5.84787 14.7733 5.68983 14.9349C5.53179 15.0966 5.44558 15.3151 5.45069 15.5411L6.29047 15.5222ZM7.96093 15.5222L8.79948 15.4728C8.77336 15.0289 8.40569 14.6822 7.96093 14.6822V15.5222ZM8.35866 16.2898L8.88167 15.6325L8.88167 15.6325L8.35866 16.2898ZM9.95354 16.4051L10.3733 17.1327L10.3762 17.131L9.95354 16.4051ZM10.4427 15.9L9.70634 15.4959L9.70462 15.4991L10.4427 15.9ZM10.4388 14.3966L9.70234 14.8007L9.70617 14.8076L10.4388 14.3966ZM9.94161 13.8875L9.5229 14.6157L9.5229 14.6157L9.94161 13.8875ZM9.21377 13.7006L9.22193 12.8606H9.21377V13.7006ZM8.51775 13.8477L8.18248 13.0775L8.17914 13.079L8.51775 13.8477ZM7.99672 14.2494L7.84854 15.0763C8.16397 15.1328 8.48409 15.0049 8.67377 14.7466L7.99672 14.2494ZM6.46547 13.975L5.62884 13.8999C5.5899 14.3335 5.88873 14.725 6.31729 14.8018L6.46547 13.975ZM6.85127 9.67956V8.83956C6.41647 8.83956 6.05353 9.17136 6.01464 9.60442L6.85127 9.67956ZM11.8308 9.67956H12.6708C12.6708 9.21564 12.2947 8.83956 11.8308 8.83956V9.67956ZM11.8308 11.0875V11.9275C12.2947 11.9275 12.6708 11.5514 12.6708 11.0875H11.8308ZM8.27116 11.0875V10.2475C7.84066 10.2475 7.47984 10.573 7.4356 11.0012L8.27116 11.0875ZM8.06036 13.1279L7.22481 13.0415C7.20037 13.2781 7.27734 13.5139 7.43662 13.6905C7.5959 13.8671 7.82256 13.9679 8.06036 13.9679V13.1279ZM8.10809 13.1279V13.9679C8.38011 13.9679 8.63528 13.8361 8.79284 13.6144L8.10809 13.1279ZM8.75638 12.6267L9.10662 13.3902L9.10662 13.3902L8.75638 12.6267ZM11.0393 12.7739L11.4715 12.0536L11.4715 12.0536L11.0393 12.7739ZM11.9501 13.7244L11.2149 14.1307L11.2161 14.1328L11.9501 13.7244ZM12.2802 15.1085L11.4402 15.1043L11.4403 15.1126L12.2802 15.1085ZM11.8984 16.5722L11.1789 16.1387L11.1781 16.14L11.8984 16.5722ZM10.8285 17.5744L11.2214 18.3169L11.2229 18.3161L10.8285 17.5744ZM9.23763 17.0964C8.77981 17.0964 8.40368 17.0126 8.09145 16.8659L7.377 18.3864C7.94507 18.6533 8.57121 18.7764 9.23763 18.7764V17.0964ZM8.09322 16.8667C7.77461 16.7161 7.54427 16.5208 7.37774 16.2856L6.00662 17.2564C6.35448 17.7477 6.81884 18.1225 7.37523 18.3856L8.09322 16.8667ZM7.37774 16.2856C7.22272 16.0667 7.1373 15.8148 7.13026 15.5032L5.45069 15.5411C5.46486 16.1682 5.64725 16.7489 6.00662 17.2564L7.37774 16.2856ZM6.29047 16.3622H7.96093V14.6822H6.29047V16.3622ZM7.12238 15.5715C7.15491 16.1245 7.40162 16.6017 7.83564 16.9471L8.88167 15.6325C8.82251 15.5854 8.80407 15.5509 8.79948 15.4728L7.12238 15.5715ZM7.83564 16.9471C8.24269 17.271 8.7239 17.4241 9.23763 17.4241V15.7441C9.07258 15.7441 8.9678 15.701 8.88167 15.6325L7.83564 16.9471ZM9.23763 17.4241C9.63553 17.4241 10.0226 17.335 10.3733 17.1327L9.53378 15.6775C9.47081 15.7139 9.38065 15.7441 9.23763 15.7441V17.4241ZM10.3762 17.131C10.7198 16.931 10.9914 16.6497 11.1809 16.301L9.70462 15.4991C9.66072 15.5799 9.60625 15.6353 9.53086 15.6792L10.3762 17.131ZM11.1791 16.3041C11.3751 15.9471 11.4617 15.5555 11.4617 15.1523H9.78172C9.78172 15.3112 9.74907 15.418 9.70635 15.4959L11.1791 16.3041ZM11.4617 15.1523C11.4617 14.7436 11.3736 14.3462 11.1714 13.9856L9.70617 14.8076C9.74784 14.8818 9.78172 14.9882 9.78172 15.1523H11.4617ZM11.1752 13.9925C10.9828 13.6419 10.708 13.3592 10.3603 13.1593L9.5229 14.6157C9.59949 14.6598 9.65614 14.7165 9.70237 14.8007L11.1752 13.9925ZM10.3603 13.1593C10.0092 12.9574 9.62211 12.8645 9.22192 12.8606L9.20562 14.5405C9.35164 14.542 9.4498 14.5737 9.5229 14.6157L10.3603 13.1593ZM9.21377 12.8606C8.85627 12.8606 8.51038 12.9348 8.18249 13.0775L8.85301 14.6179C8.97587 14.5645 9.09399 14.5406 9.21377 14.5406V12.8606ZM8.17914 13.079C7.84302 13.2271 7.54418 13.4465 7.31968 13.7522L8.67377 14.7466C8.69851 14.713 8.74702 14.6646 8.85635 14.6165L8.17914 13.079ZM8.14491 13.4226L6.61366 13.1482L6.31729 14.8018L7.84854 15.0763L8.14491 13.4226ZM7.30211 14.0502L7.6879 9.7547L6.01464 9.60442L5.62884 13.8999L7.30211 14.0502ZM6.85127 10.5196H11.8308V8.83956H6.85127V10.5196ZM10.9908 9.67956V11.0875H12.6708V9.67956H10.9908ZM11.8308 10.2475H8.27116V11.9275H11.8308V10.2475ZM7.4356 11.0012L7.22481 13.0415L8.89591 13.2142L9.10671 11.1738L7.4356 11.0012ZM8.06036 13.9679H8.10809V12.2879H8.06036V13.9679ZM8.79284 13.6144C8.82964 13.5626 8.91396 13.4786 9.10662 13.3902L8.40615 11.8632C8.02078 12.04 7.6729 12.2901 7.42334 12.6413L8.79284 13.6144ZM9.10662 13.3902C9.27269 13.314 9.47452 13.2679 9.72684 13.2679V11.5879C9.26324 11.5879 8.81811 11.6742 8.40615 11.8632L9.10662 13.3902ZM9.72684 13.2679C10.0799 13.2679 10.3654 13.3491 10.6072 13.4942L11.4715 12.0536C10.9444 11.7373 10.3548 11.5879 9.72684 11.5879V13.2679ZM10.6072 13.4942C10.8612 13.6466 11.0618 13.8536 11.2149 14.1307L12.6853 13.3181C12.393 12.7892 11.9864 12.3625 11.4715 12.0536L10.6072 13.4942ZM11.2161 14.1328C11.3593 14.3902 11.4423 14.7058 11.4403 15.1043L13.1202 15.1128C13.1235 14.4666 12.9864 13.8594 12.6842 13.3161L11.2161 14.1328ZM11.4403 15.1126C11.4422 15.5234 11.3487 15.857 11.1789 16.1387L12.6179 17.0057C12.9626 16.4336 13.1236 15.7914 13.1202 15.1045L11.4403 15.1126ZM11.1781 16.14C11.0061 16.4267 10.7652 16.6567 10.4341 16.8328L11.2229 18.3161C11.8093 18.0043 12.2817 17.5661 12.6187 17.0043L11.1781 16.14ZM10.4357 16.832C10.1199 16.999 9.72878 17.0964 9.23763 17.0964V18.7764C9.95557 18.7764 10.625 18.6324 11.2214 18.3169L10.4357 16.832ZM12.8571 9.67956V8.83956C12.3932 8.83956 12.0171 9.21564 12.0171 9.67956H12.8571ZM14.981 9.67956L15.7582 9.36098C15.6289 9.04557 15.3219 8.83956 14.981 8.83956V9.67956ZM17.2242 15.1523L16.4469 15.4709C16.5762 15.7863 16.8833 15.9923 17.2242 15.9923V15.1523ZM17.3196 15.1523V15.9923C17.6605 15.9923 17.9676 15.7863 18.0969 15.4709L17.3196 15.1523ZM19.5628 9.67956V8.83956C19.2219 8.83956 18.9148 9.04557 18.7855 9.36098L19.5628 9.67956ZM21.6867 9.67956H22.5267C22.5267 9.21564 22.1506 8.83956 21.6867 8.83956V9.67956ZM21.6867 17.825V18.665C22.1506 18.665 22.5267 18.2889 22.5267 17.825H21.6867ZM20.0162 17.825H19.1762C19.1762 18.2889 19.5523 18.665 20.0162 18.665V17.825ZM20.0162 12.5233H20.8562C20.8562 12.0594 20.4801 11.6833 20.0162 11.6833V12.5233ZM19.9486 12.5233V11.6833C19.6053 11.6833 19.2965 11.8922 19.1688 12.2109L19.9486 12.5233ZM17.8406 17.7852V18.6252C18.184 18.6252 18.4927 18.4163 18.6204 18.0976L17.8406 17.7852ZM16.7031 17.7852L15.923 18.0966C16.0504 18.4158 16.3594 18.6252 16.7031 18.6252V17.7852ZM14.5952 12.5034L15.3753 12.1921C15.2479 11.8728 14.9389 11.6634 14.5952 11.6634V12.5034ZM14.5276 12.5034V11.6634C14.0636 11.6634 13.6876 12.0395 13.6876 12.5034H14.5276ZM14.5276 17.825V18.665C14.9915 18.665 15.3676 18.2889 15.3676 17.825H14.5276ZM12.8571 17.825H12.0171C12.0171 18.2889 12.3932 18.665 12.8571 18.665V17.825ZM12.8571 10.5196H14.981V8.83956H12.8571V10.5196ZM14.2037 9.99814L16.4469 15.4709L18.0014 14.8337L15.7582 9.36098L14.2037 9.99814ZM17.2242 15.9923H17.3196V14.3123H17.2242V15.9923ZM18.0969 15.4709L20.34 9.99814L18.7855 9.36098L16.5424 14.8337L18.0969 15.4709ZM19.5628 10.5196H21.6867V8.83956H19.5628V10.5196ZM20.8467 9.67956V17.825H22.5267V9.67956H20.8467ZM21.6867 16.985H20.0162V18.665H21.6867V16.985ZM20.8562 17.825V12.5233H19.1762V17.825H20.8562ZM20.0162 11.6833H19.9486V13.3633H20.0162V11.6833ZM19.1688 12.2109L17.0609 17.4729L18.6204 18.0976L20.7283 12.8357L19.1688 12.2109ZM17.8406 16.9452H16.7031V18.6252H17.8406V16.9452ZM17.4833 17.4739L15.3753 12.1921L13.815 12.8148L15.923 18.0966L17.4833 17.4739ZM14.5952 11.6634H14.5276V13.3434H14.5952V11.6634ZM13.6876 12.5034V17.825H15.3676V12.5034H13.6876ZM14.5276 16.985H12.8571V18.665H14.5276V16.985ZM13.6971 17.825V9.67956H12.0171V17.825H13.6971Z" fill="#45BCD6" mask="url(#path-7-outside-1_575_648)"/>
<defs>
<radialGradient id="paint0_radial_575_648" cx="0" cy="0" r="1" gradientUnits="userSpaceOnUse" gradientTransform="translate(14.0035 13.9965) rotate(90) scale(14.0035)">
<stop offset="0.730693" stop-color="white" stop-opacity="0.27"/>
<stop offset="0.751167" stop-color="white" stop-opacity="0.69"/>
<stop offset="0.758071" stop-color="white"/>
<stop offset="0.969734" stop-color="white"/>
<stop offset="0.971947" stop-color="white" stop-opacity="0.8"/>
<stop offset="1" stop-color="white" stop-opacity="0.8"/>
</radialGradient>
<radialGradient id="paint1_radial_575_648" cx="0" cy="0" r="1" gradientUnits="userSpaceOnUse" gradientTransform="translate(13.9999 14) rotate(90) scale(10.22)">
<stop offset="0.952277" stop-opacity="0"/>
<stop offset="1"/>
</radialGradient>
<linearGradient id="paint2_linear_575_648" x1="14" y1="28" x2="14" y2="-1.22392e-06" gradientUnits="userSpaceOnUse">
<stop/>
<stop offset="1" stop-opacity="0"/>
</linearGradient>
<linearGradient id="paint3_linear_575_648" x1="14" y1="9.62501" x2="14" y2="17.625" gradientUnits="userSpaceOnUse">
<stop stop-color="white"/>
<stop offset="1" stop-color="white"/>
</linearGradient>
<clipPath id="clip0_575_648">
<rect width="28" height="28" fill="white"/>
</clipPath>
<clipPath id="clip1_575_648">
<rect width="28" height="28" fill="white"/>
</clipPath>
</defs>
</svg>
